<?xml version="1.0" standalone="no"?>
<!DOCTYPE svg PUBLIC "-//W3C//DTD SVG 20010904//EN"
 "http://www.w3.org/TR/2001/REC-SVG-20010904/DTD/svg10.dtd">
<svg version="1.0" xmlns="http://www.w3.org/2000/svg"
 width="501.000000pt" height="81.000000pt" viewBox="0 0 501.000000 81.000000"
 preserveAspectRatio="xMidYMid meet">
<metadata>
Created by potrace 1.16, written by Peter Selinger 2001-2019
</metadata>
<g transform="translate(0.000000,81.000000) scale(0.100000,-0.100000)"
fill="#000000" stroke="none">
<path d="M3865 796 c-53 -24 -85 -67 -97 -134 -11 -61 -12 -62 -45 -62 l-33 0
0 -65 0 -65 35 0 35 0 0 -150 0 -150 95 0 95 0 0 150 0 150 49 0 50 0 3 42 c3
41 7 33 81 -142 42 -102 77 -193 77 -202 0 -26 -34 -60 -60 -61 -14 -1 -37 2
-52 6 l-28 7 0 -60 0 -60 114 0 114 0 32 37 c18 20 39 53 48 72 23 55 172 473
172 482 0 5 -40 9 -89 9 l-89 0 -21 -87 c-12 -49 -27 -106 -33 -128 l-11 -40
-32 125 -31 125 -147 3 -147 3 0 24 c0 34 36 57 77 49 l33 -6 0 71 0 71 -82 0
c-47 -1 -96 -7 -113 -14z"/>
<path d="M3510 793 c-82 -30 -79 -135 6 -163 67 -23 134 16 134 77 0 19 -4 43
-10 53 -16 30 -88 48 -130 33z"/>
<path d="M3460 385 l0 -215 95 0 95 0 0 215 0 215 -95 0 -95 0 0 -215z"/>
</g>
</svg>
